<svg width="91" height="111" viewBox="0 0 91 111" fill="none" xmlns="http://www.w3.org/2000/svg">
<path fill-rule="evenodd" clip-rule="evenodd" d="M51.0833 33.1666C51.0833 30.6458 49.0208 28.5833 46.5 28.5833C43.9791 28.5833 41.9166 30.6458 41.9166 33.1666C41.9166 35.6874 43.9791 37.7499 46.5 37.7499C49.0208 37.7499 51.0833 35.6874 51.0833 33.1666ZM53.375 44.6249H67.125V40.0416H25.875V44.6249H39.625V74.4166H44.2083V60.6666H48.7917V74.4166H53.375V44.6249Z" fill="#224656"/>
<path fill-rule="evenodd" clip-rule="evenodd" d="M78.2895 1H12.7105C6.24632 1 1 6.04118 1 12.2526V97.7728C1 103.984 6.24632 109.025 12.7105 109.025H78.2895C84.7537 109.025 90 103.984 90 97.7728V12.2526C90 6.04118 84.7537 1 78.2895 1ZM45.4996 104.524C41.6117 104.524 38.4733 101.509 38.4733 97.7728C38.4733 94.0369 41.6117 91.0212 45.4996 91.0212C49.3875 91.0212 52.5259 94.0369 52.5259 97.7728C52.5259 101.509 49.3875 104.524 45.4996 104.524ZM10.3683 86.5201H80.6315V14.5032H10.3683V86.5201Z" fill="#FA7921"/>
<path d="M80.6315 86.5201V87.5201H81.6315V86.5201H80.6315ZM10.3683 86.5201H9.36832V87.5201H10.3683V86.5201ZM80.6315 14.5032H81.6315V13.5032H80.6315V14.5032ZM10.3683 14.5032V13.5032H9.36832V14.5032H10.3683ZM12.7105 2H78.2895V0H12.7105V2ZM2 12.2526C2 6.63069 6.76063 2 12.7105 2V0C5.732 0 0 5.45168 0 12.2526H2ZM2 97.7728V12.2526H0V97.7728H2ZM12.7105 108.025C6.76063 108.025 2 103.395 2 97.7728H0C0 104.574 5.732 110.025 12.7105 110.025V108.025ZM78.2895 108.025H12.7105V110.025H78.2895V108.025ZM89 97.7728C89 103.395 84.2394 108.025 78.2895 108.025V110.025C85.268 110.025 91 104.574 91 97.7728H89ZM89 12.2526V97.7728H91V12.2526H89ZM78.2895 2C84.2394 2 89 6.63069 89 12.2526H91C91 5.45168 85.268 0 78.2895 0V2ZM37.4733 97.7728C37.4733 102.098 41.0974 105.524 45.4996 105.524V103.524C42.126 103.524 39.4733 100.919 39.4733 97.7728H37.4733ZM45.4996 90.0212C41.0974 90.0212 37.4733 93.4474 37.4733 97.7728H39.4733C39.4733 94.6264 42.126 92.0212 45.4996 92.0212V90.0212ZM53.5259 97.7728C53.5259 93.4474 49.9018 90.0212 45.4996 90.0212V92.0212C48.8732 92.0212 51.5259 94.6264 51.5259 97.7728H53.5259ZM45.4996 105.524C49.9018 105.524 53.5259 102.098 53.5259 97.7728H51.5259C51.5259 100.919 48.8732 103.524 45.4996 103.524V105.524ZM80.6315 85.5201H10.3683V87.5201H80.6315V85.5201ZM79.6315 14.5032V86.5201H81.6315V14.5032H79.6315ZM10.3683 15.5032H80.6315V13.5032H10.3683V15.5032ZM11.3683 86.5201V14.5032H9.36832V86.5201H11.3683Z" fill="#224656"/>
</svg>
